<svg xmlns="http://www.w3.org/2000/svg" width="18" height="18">
    <path fill="#B0B0B1" fill-rule="evenodd" d="M15.751 17.998a2.258 2.258 0 0 1-2.249-2.261c0-.826.45-1.461.887-2.075.288-.406.558-.786.625-1.138l.057-.294 1.36-.001.057.295c.068.355.337.732.62 1.134h.001c.438.618.891 1.257.891 2.079a2.258 2.258 0 0 1-2.249 2.261zm.125-3.519l-.036-.051-.089-.126-.115.162c-.326.459-.635.892-.635 1.273 0 .451.336.818.75.818s.75-.367.75-.818c0-.378-.304-.805-.625-1.258zm-2.253-2.969L8.13 16.796c-.32.308-.745.477-1.198.477a1.72 1.72 0 0 1-1.198-.477L.622 11.875a1.995 1.995 0 0 1 0-2.891L6.87 2.97 5.33 1.474c-.027-.026-.08-.023-.112-.041a.156.156 0 0 0-.109.041L2.222 4.252l-1.06-1.02L4.048.454a1.691 1.691 0 0 1 1.17-.453h.003a1.7 1.7 0 0 1 1.175.458l10.312 10.022-.467 1.061-2.618-.032zM7.924 3.997l-6.242 6.008a.576.576 0 0 0-.183.424.55.55 0 0 0 .182.424l5.113 4.922a.2.2 0 0 0 .138.052.197.197 0 0 0 .137-.052l5.841-5.582.34-.133.925.011-6.251-6.074z"/>
</svg>
