<svg xmlns="http://www.w3.org/2000/svg" width="50" height="50">
    <path fill="#FFBC00" fill-rule="evenodd" d="M25 0c13.807 0 25 11.193 25 25S38.807 50 25 50 0 38.807 0 25 11.193 0 25 0z"/>
    <path fill="#FFF" fill-rule="evenodd" d="M30.302 23.454c.458 0 .818.371.818.819a.81.81 0 0 1-.818.818h-.644a.817.817 0 0 1-.818-.818c0-.448.371-.819.818-.819h.644zM31.109 33H18.902A2.9 2.9 0 0 1 16 30.098v-6.72a2.899 2.899 0 0 1 2.902-2.891h2.302a.78.78 0 0 1 .578.24c.153.153.24.349.24.578a.81.81 0 0 1-.818.818h-2.302c-.698 0-1.266.568-1.266 1.255v6.72a1.263 1.263 0 0 0 1.266 1.266h12.207c.687 0 1.255-.568 1.255-1.266v-6.72c0-.687-.557-1.254-1.255-1.254h-2.313a.817.817 0 0 1-.578-1.397.82.82 0 0 1 .578-.24h2.313A2.889 2.889 0 0 1 34 23.378v6.72A2.898 2.898 0 0 1 31.109 33zM25 23.498c1.898 0 3.436 1.516 3.436 3.404 0 1.887-1.538 3.392-3.436 3.403-1.887-.011-3.425-1.516-3.425-3.403 0-1.888 1.538-3.404 3.425-3.404zm0 5.171c1.004 0 1.8-.807 1.8-1.767 0-.971-.796-1.767-1.8-1.767-.993 0-1.789.796-1.789 1.767 0 .96.796 1.767 1.789 1.767zm2.476-8.684l-1.898 1.898a.83.83 0 0 1-.578.24.837.837 0 0 1-.164-.021c-.032-.011-.076-.022-.109-.033a.739.739 0 0 1-.305-.186l-1.898-1.898-.317-.316a.837.837 0 0 1 0-1.167.823.823 0 0 1 1.157 0l.818.829v-3.513c0-.458.371-.818.818-.818a.81.81 0 0 1 .818.818v3.513l.829-.829a.823.823 0 0 1 1.157 0 .823.823 0 0 1 0 1.156l-.328.327z"/>
</svg>
