<svg xmlns="http://www.w3.org/2000/svg" width="20" height="20">
    <path fill="#FFBC00" fill-rule="evenodd" d="M18.4 20H1.6C.703 20 0 19.297 0 18.4V1.6C0 .703.703 0 1.6 0h16.8c.897 0 1.6.703 1.6 1.6v16.8c0 .897-.703 1.6-1.6 1.6zm0-18.4H1.6v16.8h16.8V1.6zM7.437 8.637a.789.789 0 0 1 1.126 0L12 12.074l1.437-1.437a.789.789 0 0 1 1.125 0h.001l3.2 3.2c.231.232.3.577.175.879a.783.783 0 0 1-.738.484H2.8a.814.814 0 0 1-.74-.505.777.777 0 0 1 .177-.858l5.2-5.2zm7.837 4.963L14 12.326 12.726 13.6h2.548zm-4 0L8 10.326 4.726 13.6h6.548zm2.326-4a2.803 2.803 0 0 1-2.8-2.8c0-1.544 1.256-2.8 2.8-2.8 1.544 0 2.8 1.256 2.8 2.8 0 1.544-1.256 2.8-2.8 2.8zm0-4a1.201 1.201 0 0 0 0 2.4 1.201 1.201 0 0 0 0-2.4z"/>
</svg>
