<svg xmlns="http://www.w3.org/2000/svg" width="20" height="20">
    <path fill="#FFBC00" fill-rule="evenodd" d="M10 0C4.489 0 0 4.489 0 10s4.489 10 10 10 10-4.489 10-10S15.511 0 10 0zm0 1.935A8.05 8.05 0 0 1 18.064 10 8.05 8.05 0 0 1 10 18.064 8.05 8.05 0 0 1 1.935 10 8.05 8.05 0 0 1 10 1.935zM6.129 5.161a1.613 1.613 0 1 0 0 3.226 1.613 1.613 0 0 0 0-3.226zm7.742 0a1.613 1.613 0 1 0 0 3.226 1.613 1.613 0 0 0 0-3.226zm.665 6.754c-.345-.003-.67.229-.806.414A4.598 4.598 0 0 1 10 14.193a4.597 4.597 0 0 1-3.73-1.864c-.297-.414-.948-.521-1.361-.222-.412.299-.512.949-.211 1.361 1.176 1.613 3.123 2.661 5.302 2.661 2.178 0 4.126-1.048 5.302-2.661a.98.98 0 0 0-.766-1.553z"/>
</svg>
