<svg xmlns="http://www.w3.org/2000/svg" width="31.5" height="31.5">
    <path fill="none" stroke="#B0B0B1" d="M15.5.5c8.284 0 15 6.716 15 15 0 8.284-6.716 15-15 15-8.284 0-15-6.716-15-15 0-8.284 6.716-15 15-15z"/>
    <path fill="#B0B0B1" fill-rule="evenodd" d="M21.695 11.297h-.653v9.569c0 .9-.82 1.633-1.827 1.633H11.66c-1.008 0-1.828-.733-1.828-1.633v-9.569h-.654c-.408 0-.739-.295-.739-.659 0-.364.331-.66.739-.66h2.729V8.16c0-.364.332-.66.739-.66h5.583c.407 0 .738.296.738.66v1.818h2.728c.408 0 .739.296.739.66 0 .364-.331.659-.739.659zM17.49 8.82h-4.105v1.158h4.105V8.82zm2.075 2.477h-8.256v9.569c0 .173.157.313.351.313h7.555c.193 0 .35-.14.35-.313v-9.569zm-2.699 8.77c-.407 0-.738-.296-.738-.66v-7.024c0-.363.331-.659.738-.659.408 0 .739.296.739.659v7.024c0 .364-.331.66-.739.66zm-2.858 0c-.408 0-.739-.296-.739-.66v-7.024c0-.363.331-.659.739-.659.407 0 .738.296.738.659v7.024c0 .364-.331.66-.738.66z"/>
</svg>
