<svg xmlns="http://www.w3.org/2000/svg" width="19" height="15">
    <path fill="#B0B0B1" fill-rule="evenodd" d="M17.631 8.613h-7.302A1.126 1.126 0 0 1 9.197 7.5c0-.612.509-1.113 1.132-1.113h7.302c.622 0 1.132.501 1.132 1.113s-.51 1.113-1.132 1.113zm0-6.386H1.896A1.127 1.127 0 0 1 .763 1.113C.763.501 1.273 0 1.896 0h15.735c.622 0 1.132.501 1.132 1.113 0 .613-.51 1.114-1.132 1.114zM1.896 12.773h15.735c.622 0 1.132.501 1.132 1.114 0 .612-.51 1.113-1.132 1.113H1.896a1.127 1.127 0 0 1-1.133-1.113c0-.613.51-1.114 1.133-1.114z"/>
</svg>
