<svg xmlns="http://www.w3.org/2000/svg" width="16" height="16">
    <path fill="#B3B3B4" fill-rule="evenodd" d="M15.235 3.202H7.628C7.298 4.251 6.247 5.02 5.01 5.02c-1.237 0-2.289-.769-2.618-1.818H.763c-.433 0-.763-.3-.763-.693 0-.394.351-.694.763-.694h1.629C2.721.766 3.773-.002 5.01-.002c1.237 0 2.288.768 2.618 1.817h7.607c.433 0 .763.3.763.694 0 .393-.35.693-.763.693zM5.01 1.385c-.66 0-1.237.524-1.237 1.124 0 .599.536 1.124 1.237 1.124.701 0 1.237-.487 1.237-1.124 0-.637-.577-1.124-1.237-1.124zM.763 7.306h7.648c.351-1.031 1.402-1.818 2.639-1.818 1.237 0 2.289.768 2.619 1.818h1.566c.433 0 .763.318.742.693 0 .393-.35.693-.762.693h-1.567c-.33 1.049-1.381 1.818-2.618 1.818-1.237 0-2.289-.769-2.619-1.818H.763C.33 8.692 0 8.374 0 7.999c0-.394.351-.693.763-.693zM11.05 9.123c.66 0 1.237-.487 1.237-1.124 0-.637-.536-1.124-1.237-1.124-.701 0-1.237.487-1.237 1.124 0 .637.578 1.124 1.237 1.124zM.763 12.796h1.629c.329-1.05 1.381-1.818 2.618-1.818 1.237 0 2.288.768 2.618 1.818h7.607c.433 0 .763.299.763.693 0 .393-.35.693-.763.693H7.628C7.298 15.231 6.247 16 5.01 16c-1.237 0-2.289-.769-2.618-1.818H.763c-.433 0-.763-.3-.763-.693 0-.394.351-.693.763-.693zm4.247 1.817c.66 0 1.237-.487 1.237-1.124 0-.637-.536-1.124-1.237-1.124-.701 0-1.237.487-1.237 1.124 0 .637.577 1.124 1.237 1.124z"/>
</svg>
