<svg xmlns="http://www.w3.org/2000/svg" width="20" height="20">
    <path fill="#B0B0B1" fill-rule="evenodd" d="M16.632 15.273h-.149v3.328c0 .315-.069.591-.204.819-.217.369-.58.58-.994.58-.361 0-.699-.157-1.004-.469l-4.156-4.239a.697.697 0 0 0-.061-.022l-6.696.003C1.511 15.273 0 13.732 0 11.838V3.435C0 1.541 1.511 0 3.368 0h13.264C18.489 0 20 1.541 20 3.435v8.403c0 1.894-1.511 3.435-3.368 3.435zm1.455-11.838c0-.818-.653-1.484-1.455-1.484H3.368c-.802 0-1.455.666-1.455 1.484v8.403c0 .818.653 1.484 1.455 1.484H10.1c.47 0 1.03.236 1.363.575l3.107 3.168v-2.153c0-.877.699-1.591 1.559-1.591h.503c.802 0 1.455-.665 1.455-1.483V3.435zm-3.018 5.42c-.805 0-1.458-.666-1.458-1.487 0-.821.653-1.487 1.458-1.487.806 0 1.459.666 1.459 1.487 0 .821-.653 1.487-1.459 1.487zm-5.069 0c-.805 0-1.458-.666-1.458-1.487 0-.821.653-1.487 1.458-1.487.805 0 1.458.666 1.458 1.487 0 .821-.653 1.487-1.458 1.487zm-5.07 0c-.805 0-1.458-.666-1.458-1.487 0-.821.653-1.487 1.458-1.487.806 0 1.459.666 1.459 1.487 0 .821-.653 1.487-1.459 1.487z"/>
</svg>
