<svg xmlns="http://www.w3.org/2000/svg" width="51.5" height="51.5">
    <path fill="none" stroke="#FFBC00" d="M25.5.5c13.807 0 25 11.193 25 25s-11.193 25-25 25-25-11.193-25-25 11.193-25 25-25z"/>
    <path fill="#FFBC00" fill-rule="evenodd" d="M30.087 17.5h-9.174a3.414 3.414 0 0 0-3.413 3.413v9.174a3.414 3.414 0 0 0 3.413 3.413h9.174a3.414 3.414 0 0 0 3.413-3.413v-9.174a3.414 3.414 0 0 0-3.413-3.413zM18.389 30.087v-.569l5.262-5.245.64.64-5.813 5.796a2.366 2.366 0 0 1-.089-.622zm0-1.814v-1.28l3.982-3.982.64.64-4.622 4.622zm0-2.542v-1.262l2.72-2.72.64.64-3.36 3.342zm0-2.524v-1.28l1.44-1.44.64.64-2.08 2.08zm.462-3.734l.373.374-.8.8c.018-.445.178-.836.427-1.174zm.018 12.089l6.027-6.026.64.639-6.009 6.027a2.816 2.816 0 0 1-.658-.64zm1.546.996l5.761-5.76.64.64-5.138 5.12.053.053h-.818c-.177 0-.337-.018-.498-.053zm11.112-.409a2.675 2.675 0 0 1-.978.409l.693-.694.285.285zm-2.24.409l.053.053h-1.387l2.009-2.009.64.64-1.315 1.316zm-2.489.053h-1.369L28.7 29.34l.64.64-2.596 2.578.054.053zm-2.525 0h-1.386l4.551-4.551.64.64-3.858 3.858.053.053zm8.338-2.524a2.53 2.53 0 0 1-.462 1.44L19.473 18.851a2.53 2.53 0 0 1 1.44-.462h9.174a2.534 2.534 0 0 1 2.524 2.524v9.174z"/>
</svg>
