<svg xmlns="http://www.w3.org/2000/svg" width="19" height="15">
    <path fill="#B0B0B1" fill-rule="evenodd" d="M17.608 2.227H1.876A1.126 1.126 0 0 1 .744 1.113C.744.501 1.253 0 1.876 0h15.732c.623 0 1.132.501 1.132 1.113 0 .613-.509 1.114-1.132 1.114zM1.876 6.387h7.3c.622 0 1.132.501 1.132 1.113s-.51 1.113-1.132 1.113h-7.3A1.126 1.126 0 0 1 .744 7.5c0-.612.509-1.113 1.132-1.113zm0 6.386h15.732c.623 0 1.132.501 1.132 1.114 0 .612-.509 1.113-1.132 1.113H1.876a1.126 1.126 0 0 1-1.132-1.113c0-.613.509-1.114 1.132-1.114z"/>
</svg>
